<mxfile host="app.diagrams.net" modified="2023-04-22T14:04:25.212Z" agent="Mozilla/5.0 (Windows NT 10.0; Win64; x64) AppleWebKit/537.36 (KHTML, like Gecko) Chrome/112.0.0.0 Safari/537.36" version="21.1.8" etag="-YvtliVmqdP7z_ezBmG4" type="github">
  <diagram name="Page-1" id="JJRbDX38c3A1kodHugt0">
    <mxGraphModel>
      <root>
        <mxCell id="0" />
        <mxCell id="1" parent="0" />
      </root>
    </mxGraphModel>
  </diagram>
</mxfile>
